HIERARCHY
ROOT Hips
{
    OFFSET 0.000000 0.000000 0.000000
    CHANNELS 6 Xposition Yposition Zposition Zrotation Xrotation Yrotation
    JOINT Spine
    {
        OFFSET -0.000000 8.249566 0.000000
        CHANNELS 3 Zrotation Xrotation Yrotation
        JOINT Spine1
        {
            OFFSET -0.000000 22.751984 0.000000
            CHANNELS 3 Zrotation Xrotation Yrotation
            JOINT Neck
            {
                OFFSET -0.000000 22.658548 2.059868
                CHANNELS 3 Zrotation Xrotation Yrotation
                JOINT Head
                {
                    OFFSET -0.000000 14.084625 -2.012089
                    CHANNELS 3 Zrotation Xrotation Yrotation
                    End Site
                    {
                        OFFSET -0.000000 25.151115 0.000000
                    }
                }
            }
            JOINT LeftShoulder
            {
                OFFSET 4.014710 20.418900 0.142539
                CHANNELS 3 Zrotation Xrotation Yrotation
                JOINT LeftArm
                {
                    OFFSET 12.409162 0.000000 0.000000
                    CHANNELS 3 Zrotation Xrotation Yrotation
                    JOINT LeftForeArm
                    {
                        OFFSET 32.111938 0.000000 0.000000
                        CHANNELS 3 Zrotation Xrotation Yrotation
                        JOINT LeftHand
                        {
                            OFFSET 25.320286 0.000000 0.000000
                            CHANNELS 3 Zrotation Xrotation Yrotation
                            End Site
                            {
                                OFFSET 15.090670 0.000000 0.000000
                            }
                        }
                    }
                }
            }
            JOINT RightShoulder
            {
                OFFSET -4.019371 20.418900 0.142539
                CHANNELS 3 Zrotation Xrotation Yrotation
                JOINT RightArm
                {
                    OFFSET -12.409162 0.000000 0.000000
                    CHANNELS 3 Zrotation Xrotation Yrotation
                    JOINT RightForeArm
                    {
                        OFFSET -32.111938 0.000000 0.000000
                        CHANNELS 3 Zrotation Xrotation Yrotation
                        JOINT RightHand
                        {
                            OFFSET -25.320286 0.000000 0.000000
                            CHANNELS 3 Zrotation Xrotation Yrotation
                            End Site
                            {
                                OFFSET -15.090670 0.000000 0.000000
                            }
                        }
                    }
                }
            }
        }
    }
    JOINT LeftUpLeg
    {
        OFFSET 10.060447 0.000000 0.000000
        CHANNELS 3 Zrotation Xrotation Yrotation
        JOINT LeftLeg
        {
            OFFSET -0.000000 -49.683781 0.000000
            CHANNELS 3 Zrotation Xrotation Yrotation
            JOINT LeftFoot
            {
                OFFSET -0.000000 -37.035061 0.000000
                CHANNELS 3 Zrotation Xrotation Yrotation
                JOINT LeftToeBase
                {
                    OFFSET -0.000000 -6.539289 15.090670
                    CHANNELS 3 Zrotation Xrotation Yrotation
                    End Site
                    {
                        OFFSET -0.000000 0.000000 4.024179
                    }
                }
            }
        }
    }
    JOINT RightUpLeg
    {
        OFFSET -10.060447 0.000000 0.000000
        CHANNELS 3 Zrotation Xrotation Yrotation
        JOINT RightLeg
        {
            OFFSET -0.000000 -49.683781 0.000000
            CHANNELS 3 Zrotation Xrotation Yrotation
            JOINT RightFoot
            {
                OFFSET -0.000000 -37.035061 0.000000
                CHANNELS 3 Zrotation Xrotation Yrotation
                JOINT RightToeBase
                {
                    OFFSET -0.000000 -6.539289 15.090670
                    CHANNELS 3 Zrotation Xrotation Yrotation
                    End Site
                    {
                        OFFSET -0.000000 0.000000 4.024179
                    }
                }
            }
        }
    }
}
MOTION
Frames:    14
Frame Time:    0.008333
5.879789    105.024048    48.472511    22.427277    7.115514    -135.563171    2.513180    9.041075    2.569488    4.219539    1.039457    2.729929    5.940697    1.219876    -13.293237    10.912494    11.652454    -14.254021    6.013634    6.127016    -4.225041    -54.721409    41.832047    -22.095324    6.129758    -6.657365    -25.456463    -4.043770    -5.042016    -6.731863    -7.702425    12.463620    -3.167989    60.243599    49.085224    16.132484    -1.918685    -6.665012    16.310957    18.377319    -5.502536    5.523393    23.529240    -22.150774    -11.264087    2.085906    28.960712    -18.120010    10.587780    10.304149    -3.301266    0.000000    0.000000    0.000000    -16.635611    -61.013630    8.142582    -8.592491    77.786804    0.575732    -7.016928    -8.805875    -17.617931    0.000000    0.000000    0.000000    
6.049362    105.095200    47.782814    22.522545    7.204517    -134.625153    2.379182    8.923372    2.533978    4.439413    1.253023    2.671064    5.787035    0.684282    -13.517481    11.378607    11.954458    -14.508970    6.132990    5.931151    -4.009857    -54.680424    42.081963    -22.154596    6.139283    -6.666607    -25.718500    -4.222743    -5.027927    -6.623054    -7.892193    12.329546    -3.359002    60.744896    48.872692    15.802741    -1.846652    -6.359421    16.255327    18.440287    -5.185594    5.639447    23.720528    -22.419935    -11.317565    2.178154    28.876219    -18.081129    10.900200    10.695700    -3.777224    0.000000    0.000000    0.000000    -17.007385    -60.457726    8.273239    -7.537179    75.436897    -0.457529    -6.800800    -7.196962    -17.719482    0.000000    0.000000    0.000000    
6.217267    105.144798    47.107327    22.616266    7.273600    -133.652084    2.345367    8.879417    2.482656    4.453166    1.199648    2.618122    5.962736    0.535478    -13.819070    11.516016    11.893552    -14.847161    6.253514    5.906712    -3.979187    -54.798008    41.806671    -22.000254    5.945046    -6.484609    -26.057264    -4.333045    -4.865991    -6.593695    -7.845058    12.316212    -3.368185    61.220509    48.735497    15.285007    -1.825619    -6.316693    16.207130    18.551973    -5.124118    5.742512    23.945555    -22.709818    -11.634297    1.989812    28.796942    -17.978134    11.171212    10.952576    -3.905252    0.000000    0.000000    0.000000    -17.604443    -59.853607    8.247726    -6.199636    73.087502    -1.518476    -6.396048    -5.903390    -18.312706    0.000000    0.000000    0.000000    
6.416284    105.166672    46.354500    22.779476    7.484272    -132.678772    2.318316    8.960799    2.464690    4.632714    0.911129    2.609528    6.103618    0.733179    -14.114885    11.749190    11.436430    -15.110387    6.347581    6.005312    -4.079772    -54.831818    41.872742    -21.874517    5.987535    -6.541400    -26.287458    -4.551251    -4.889373    -6.557501    -7.698977    12.565507    -3.531131    61.282505    48.819706    15.096526    -1.726933    -6.497634    16.269245    18.286119    -5.316708    5.838420    24.352226    -22.990192    -11.609968    2.030284    28.809940    -18.335287    11.447515    11.106988    -3.964266    0.000000    0.000000    0.000000    -17.658302    -59.212780    8.271072    -6.376337    70.730446    -1.617103    -5.902855    -4.313725    -18.574455    0.000000    0.000000    0.000000    
6.589142    105.162521    45.620338    22.876314    7.628274    -131.757324    2.292457    8.869347    2.378008    4.700260    0.968719    2.516089    5.855204    0.471267    -14.236656    12.448175    11.689396    -15.217484    6.438434    5.980839    -3.990802    -54.901508    41.828880    -21.741652    6.017352    -6.529817    -26.495615    -4.626189    -4.853641    -6.590949    -7.653897    12.647592    -3.569092    61.451839    49.116188    14.993842    -1.928978    -6.827504    16.135159    18.674822    -5.560636    6.081887    24.660013    -23.189663    -11.829783    1.970465    28.751905    -18.385324    11.640945    11.149315    -3.985396    0.000000    0.000000    0.000000    -17.763409    -58.561398    8.296595    -6.636078    68.348335    -1.836155    -5.061791    -2.743425    -18.496229    0.000000    0.000000    0.000000    
6.753075    105.118095    44.876842    22.981119    7.681051    -130.810837    2.171268    8.756656    2.397708    4.762107    0.941250    2.524824    6.083411    0.614404    -14.735499    12.703824    11.032278    -15.681868    6.648683    5.978303    -4.082729    -54.939919    41.957661    -21.724234    6.062895    -6.641544    -26.710279    -4.692790    -4.940295    -6.564138    -7.497602    12.599130    -3.793465    61.688255    49.297104    14.555648    -1.746988    -6.918269    16.255175    18.583218    -5.673158    6.126354    24.905121    -23.467913    -11.965277    1.948818    28.717356    -18.567221    11.447272    11.028338    -3.619233    0.000000    0.000000    0.000000    -18.149397    -57.944679    8.166475    -6.312425    65.996147    -2.203694    -4.313407    -1.141045    -18.744371    0.000000    0.000000    0.000000    
6.899062    105.070099    44.146675    23.019136    7.822985    -129.846710    2.192017    8.804787    2.343431    4.692235    0.799425    2.479457    6.463051    0.671197    -14.921694    12.585020    10.562296    -15.880754    6.808695    5.981685    -4.184508    -55.118874    41.869633    -21.506893    6.099923    -6.712554    -26.849915    -5.098431    -4.960770    -6.809530    -7.294319    12.670690    -3.735769    62.123806    49.032578    14.027726    -1.671353    -6.851051    16.179422    18.726248    -5.585974    6.271213    25.103531    -23.636591    -12.166691    2.028492    28.651539    -18.644140    11.530515    10.996639    -3.585923    0.000000    0.000000    0.000000    -18.510935    -57.158512    8.067601    -5.726017    63.656597    -2.650375    -3.867881    0.495733    -19.229733    0.000000    0.000000    0.000000    
7.054069    104.993965    43.402882    23.099827    7.922621    -128.921478    2.121213    8.650090    2.278583    4.834213    0.980280    2.397655    6.197990    0.236818    -15.117518    13.089666    10.845644    -16.082239    6.792430    5.885872    -4.125633    -55.079826    41.862278    -21.386217    6.114002    -6.714242    -27.134380    -5.419149    -4.923184    -6.827565    -7.337484    12.642064    -3.782025    62.392426    48.906410    13.830087    -1.509987    -6.681863    16.150871    18.612535    -5.467466    6.139955    25.372345    -23.846867    -12.330411    1.960137    28.585011    -18.410992    11.976970    10.970620    -3.844835    0.000000    0.000000    0.000000    -18.768291    -56.425915    7.993908    -5.531692    61.247868    -2.670142    -3.108109    2.307677    -19.652899    0.000000    0.000000    0.000000    
7.192445    104.893280    42.667389    23.121544    7.941405    -127.901085    2.006139    8.598343    2.220908    4.863519    0.914833    2.332883    6.394869    0.089391    -15.342374    13.098848    10.706717    -16.339115    6.886979    5.944792    -4.241029    -55.142410    41.559975    -21.304276    5.951777    -6.650859    -27.312546    -5.483649    -4.882049    -6.891726    -7.237503    12.788648    -3.889921    62.491783    48.974979    13.666511    -1.300240    -6.934423    16.277060    18.450106    -5.761885    6.113916    25.491846    -24.086149    -12.541533    1.927079    28.505720    -18.273064    12.225406    10.829265    -3.887993    0.000000    0.000000    0.000000    -19.413448    -55.646835    7.639298    -4.932239    58.854759    -2.882184    -2.960956    4.379056    -19.824457    0.000000    0.000000    0.000000    
7.332228    104.790810    41.912289    23.153740    8.176290    -127.056381    2.028241    8.716880    2.243891    4.930079    0.867537    2.361141    6.558415    -0.045525    -15.648000    13.096958    10.399116    -16.656288    6.937396    6.053348    -4.259018    -55.013256    41.613522    -21.412262    6.124894    -6.781953    -27.499512    -5.905857    -4.939166    -6.822167    -7.147696    12.831030    -4.053484    62.555637    49.185688    13.523806    -1.191560    -7.010582    16.295753    18.697311    -5.824191    6.210120    25.854645    -24.113407    -12.518116    2.010938    28.433046    -18.492037    12.189264    10.528468    -3.612474    0.000000    0.000000    0.000000    -19.417736    -54.697140    7.859758    -4.478972    56.313953    -3.103316    -2.049725    5.886765    -20.221935    0.000000    0.000000    0.000000    
7.464890    104.672218    41.167454    23.189426    8.224192    -126.123215    1.987264    8.601925    2.167323    4.846347    0.956666    2.276333    6.847980    -0.156074    -15.824849    13.150909    10.133857    -16.858633    7.099731    5.998467    -4.380942    -55.161808    41.541424    -21.204472    6.234356    -6.901941    -27.648951    -6.308725    -4.993731    -6.939715    -6.923496    12.847561    -4.005015    62.632374    49.169102    13.330668    -1.034644    -7.061700    16.303694    18.575274    -5.915162    6.144637    26.048843    -24.292812    -12.688298    1.937872    28.360737    -18.243902    12.185867    10.240185    -3.446301    0.000000    0.000000    0.000000    -19.752144    -53.866142    7.677924    -4.239987    53.822079    -3.206212    -1.535420    7.869351    -20.296043    0.000000    0.000000    0.000000    
7.606393    104.517365    40.377556    23.198977    8.280499    -125.133698    1.829795    8.521316    2.123992    4.982134    1.038277    2.215169    7.017631    -0.433789    -16.026857    13.056947    10.049282    -17.108675    7.026133    6.016144    -4.327077    -54.886761    41.784039    -21.383835    6.512173    -7.155891    -27.694744    -6.475526    -5.169810    -6.897388    -6.910282    12.836722    -4.017051    62.865170    49.259155    13.108963    -0.918176    -7.042542    16.282764    18.777147    -5.895013    6.184860    26.202391    -24.482262    -12.807943    2.018203    28.328051    -18.362171    12.289763    10.063593    -3.222976    0.000000    0.000000    0.000000    -20.002253    -53.012615    7.520982    -4.177647    51.406269    -3.525737    -0.647543    9.645523    -20.127655    0.000000    0.000000    0.000000    
7.724210    104.360153    39.642696    23.185587    8.375906    -124.180046    1.922979    8.642488    2.055513    4.856193    0.857767    2.164466    6.967440    -0.446768    -16.287365    13.354799    9.883246    -17.340616    7.048330    6.060728    -4.413721    -54.768509    41.840729    -21.323429    6.512951    -7.303374    -27.840727    -6.351566    -5.302916    -7.139448    -6.880384    12.836104    -3.976196    63.298077    49.466415    12.727757    -1.011520    -7.055758    16.226694    19.025545    -5.873827    6.232335    26.344389    -24.661600    -12.868843    2.114885    28.361410    -18.480488    12.287993    9.811439    -2.881087    0.000000    0.000000    0.000000    -20.350691    -52.085236    7.392835    -3.635257    49.055470    -3.482071    0.048995    11.322756    -20.628042    0.000000    0.000000    0.000000    
7.846779    104.187180    38.808002    23.230381    8.379405    -122.938278    1.681909    8.543057    1.926982    5.041854    0.737229    2.020169    7.323213    -0.476915    -16.534702    13.177932    9.523615    -17.623968    7.131968    6.201266    -4.570577    -54.663818    41.501385    -21.469601    6.231785    -7.267373    -27.821266    -6.332786    -5.312700    -7.609388    -6.592348    13.018913    -4.199222    63.012722    49.872372    12.800869    -0.931647    -7.105172    16.289320    19.252432    -5.912318    6.286791    26.388096    -25.066669    -13.153454    2.292559    28.422464    -18.864676    12.019429    9.500961    -2.420541    0.000000    0.000000    0.000000    -20.891396    -51.107330    6.863679    -3.449399    46.764252    -3.668475    1.078470    12.589530    -20.798838    0.000000    0.000000    0.000000    
